<svg id="Слой_1" data-name="Слой 1" xmlns="http://www.w3.org/2000/svg" viewBox="0 0 226 226"><defs><style>.cls-1{fill:#475deb;}.cls-2{fill:#fff;}</style></defs><title>за результативность 2</title><g id="За_результативность_2" data-name="За результативность 2"><path class="cls-1" d="M741,668A113,113,0,1,1,854,781,113,113,0,0,1,741,668" transform="translate(-741 -555)"/><path class="cls-2" d="M933,732.58l-10.72-13.53H922L877,661.84,859.16,684,848,672l0,0L811.5,633.15,750.28,712.9a111.56,111.56,0,0,0,6.6,12.88l55.74-72.16,18,19.27-45,59.69ZM839.82,682.8l20.08,21.54,16.94-21.07,28.21,35.8-92.83.14Z" transform="translate(-741 -555)"/><path class="cls-2" d="M951.61,725l-37.39-38.28-39.47-40.42-18.88,31.12,1.56,1,17.66-29.11,38.65,39.58,36.9,37.79C951,726.05,951.29,725.51,951.61,725Z" transform="translate(-741 -555)"/><path class="cls-2" d="M954.7,719.32l-38.57-39.49-41.77-42.77-.63-.65-22.38,36.9.42.63,1,.59L874,639.45l6.43,6.46,33.9,34.72,4.39,4.49L953.8,721C954.1,720.46,954.41,719.9,954.7,719.32Z" transform="translate(-741 -555)"/><path class="cls-2" d="M957.5,713.4,918,673l-44.64-45.71-.68-.69-25.89,42.66.11.82,1.12.68,21.39-35.25,3.65-5.9L915,672.45l4.8,4.92,36.94,37.82C957,714.6,957.24,714,957.5,713.4Z" transform="translate(-741 -555)"/><path class="cls-2" d="M960,707.18l-40.09-41.06-47.51-48.65-.73-.75L842.3,665.15l-.21,1,1.27.77,23.26-38.33,5.52-8.8,43.44,44.47,5.21,5.34,38.51,39.44C959.55,708.43,959.79,707.81,960,707.18Z" transform="translate(-741 -555)"/><path class="cls-2" d="M962.21,700.62l-40.38-41.35-50.39-51.6-.77-.79-32.89,54.2-.52,1.2,1.41.86,25.12-41.41L871,609.86l45.16,46.25,5.62,5.76,39.78,40.73C961.81,702,962,701.28,962.21,700.62Z" transform="translate(-741 -555)"/><path class="cls-2" d="M964.06,693.71l-40.32-41.29-53.27-54.54-.82-.85-37.23,61.36,1.56,1L870,600l52.85,54.12,40.71,41.69C963.72,695.11,963.9,694.41,964.06,693.71Z" transform="translate(-741 -555)"/><path class="cls-2" d="M799.53,614l8.05-1.55a.51.51,0,0,0,.34-.25l4-7.18a.12.12,0,0,1,.23,0l4,7.18a.51.51,0,0,0,.34.25l8.05,1.55c.13,0,.16.12.07.22l-5.6,6a.59.59,0,0,0-.14.4l1,8.13c0,.13-.06.19-.18.14l-7.42-3.48a.54.54,0,0,0-.43,0l-7.42,3.48c-.12.05-.2,0-.18-.14l1-8.13a.54.54,0,0,0-.13-.4l-5.6-6c-.09-.1-.06-.2.07-.22" transform="translate(-741 -555)"/></g></svg>