<svg id="Слой_1" data-name="Слой 1" xmlns="http://www.w3.org/2000/svg" viewBox="0 0 226 226"><defs><style>.cls-1{fill:#00a560;}.cls-2{fill:#fff;}</style></defs><title>за мобильность</title><g id="За_мобильность" data-name="За мобильность"><path class="cls-1" d="M995,668a113,113,0,1,1,113,113A113,113,0,0,1,995,668" transform="translate(-995 -555)"/><path class="cls-2" d="M1101.2,710.79a3.1,3.1,0,0,0-3.1.23,3.32,3.32,0,0,0-1.41,3v2.78q0,6.5,0,13c0,.71.06,1.43.12,2.14l.1,1.33,1.09,1.06.25.08a3.7,3.7,0,0,0,1.64.4,2.87,2.87,0,0,0,1.44-.38,3.1,3.1,0,0,0,1.48-2.59c0-.44.06-.87.07-1.3l0-2.48c.06-3.6.11-7.19.14-10.79,0-1.51,0-2.73-.11-3.85a3.11,3.11,0,0,0-1.76-2.57" transform="translate(-995 -555)"/><path class="cls-2" d="M1147.49,688.13l-.45-.52c-.38-.46-.77-.91-1.19-1.34l-15-15.38c-.14-.14-.3-.28-.46-.42a3.08,3.08,0,0,0-.4-.32,2.77,2.77,0,0,1,.21-.64c.07-.17.13-.34.19-.5a57.61,57.61,0,0,0,.4-35.49c-3.75-12.3-10.13-23.38-19.53-33.89a1.43,1.43,0,0,0-1-.55h-.39a3.32,3.32,0,0,0-3,1c-.5.6-1,1.18-1.56,1.75s-1.28,1.41-1.88,2.15a95.93,95.93,0,0,0-8.33,12,77.94,77.94,0,0,0-7.47,16.62,59.22,59.22,0,0,0-2.5,23.06,62.45,62.45,0,0,0,3,13.91q-8.07,7.94-16.12,15.91a16.86,16.86,0,0,0-1.81,2.09,2.29,2.29,0,0,0-.37,2.46l9.41,19.1a1.81,1.81,0,0,0,.47.64,3.11,3.11,0,0,0,3.88.06,28.1,28.1,0,0,0,2.28-2q6.06-5.91,12.08-11.84l2.71-2.67.73,1c.77,1,1.55,2,2.35,3,1,1.22,2,2.4,3.07,3.48a3.07,3.07,0,0,0,2.16,1,2.74,2.74,0,0,0,2.07-.89c1.15-1.14,2.32-2.41,3.67-4,.81-1,1.59-1.95,2.38-3l.29-.37,3.34,3.37q5.86,5.92,11.75,11.85a19.43,19.43,0,0,0,2.14,1.84,2.78,2.78,0,0,0,1.63.52,3.21,3.21,0,0,0,.68-.07,2.92,2.92,0,0,0,1.93-1.5l5.56-11,1.41-2.84c.71-1.44,1.42-2.88,2.16-4.3a2.83,2.83,0,0,0-.42-3.36m-56.87-11.94a100.54,100.54,0,0,0,6.26,11.71l-8.26,8.08-5.19,5.09c-.27.26-.55.51-.84.77l-5-10.13c-.3-.62-.6-1.24-.92-1.86Zm33.15-7.57a77.59,77.59,0,0,1-9.65,18.46c-1.19,1.68-2.49,3.34-3.74,4.94-.48.61-1,1.21-1.42,1.82l-.72-.88a87.86,87.86,0,0,1-9.79-15,66,66,0,0,1-6.62-19.2,51.85,51.85,0,0,1,1.24-22.44A71.6,71.6,0,0,1,1103.78,614c1.23-1.77,2.58-3.5,3.89-5.18l1.52-2,.46.6c.92,1.16,1.82,2.31,2.67,3.48a85.62,85.62,0,0,1,9.16,15.58A59.67,59.67,0,0,1,1126.7,645a53.11,53.11,0,0,1-2.93,23.59m3.54,8.18,0-.08,1.47,1.48q6.23,6.25,12.45,12.5l-6,11.82-4.78-4.82-9.44-9.48a116.53,116.53,0,0,0,6.25-11.42m15,14.14-.92-.47a.31.31,0,0,1,0-.08Z" transform="translate(-995 -555)"/><path class="cls-2" d="M1118.62,710.8a3,3,0,0,0-3.34,1.44,4.17,4.17,0,0,0-.48,1.81c-.06,2.48-.12,5-.1,7.44,0,3.61.09,7.21.18,10.82a2.77,2.77,0,0,0,.76,1.76,3.14,3.14,0,0,0,2.27.93,3.72,3.72,0,0,0,2.27-.8l.26-.21.19-.6a3.57,3.57,0,0,0,.26-1.08c.11-4.25.21-8.5.27-12.74,0-2.06,0-4.08-.12-6a3.06,3.06,0,0,0-2.42-2.81" transform="translate(-995 -555)"/><path class="cls-2" d="M1100.87,627c-4.3,4.2-4.36,12-.12,16.34a11.89,11.89,0,0,0,8.52,3.48,11,11,0,0,0,11.34-11.24,11.75,11.75,0,0,0-3.2-8.36,12,12,0,0,0-16.54-.22m11.84,12.25a4.64,4.64,0,0,1-4.15,1.52,5.94,5.94,0,0,1-4.9-6.1,4.77,4.77,0,0,1,1.47-2.93,5.47,5.47,0,0,1,3.92-1.93,5.25,5.25,0,0,1,1.81.34,6.62,6.62,0,0,1,2.45,2l.38.42a4.84,4.84,0,0,1,.32,5c-.28.39-.59.75-.9,1.11Z" transform="translate(-995 -555)"/><path class="cls-2" d="M1217,697.71c-34.91-13.92-60-51.3-60-95.11a111.23,111.23,0,0,1,5.19-33.75l-.92-.49A112.46,112.46,0,0,0,1156,602.6c0,44.29,25.38,82.06,60.74,96.1C1216.87,698.37,1217,698,1217,697.71Z" transform="translate(-995 -555)"/><path class="cls-2" d="M1165,602.6a101.78,101.78,0,0,1,4.34-29.53l-.89-.57a102.84,102.84,0,0,0-4.47,30.1c0,40.2,22.9,74.52,54.88,87.52.07-.34.13-.68.19-1C1187.52,676.19,1165,642.29,1165,602.6Z" transform="translate(-995 -555)"/><path class="cls-2" d="M1172.89,602.6a92,92,0,0,1,3.34-24.68l-.87-.65a93.13,93.13,0,0,0-3.49,25.33c0,35.82,20.11,66.47,48.36,78.63l.12-1.06C1192.61,668.08,1172.89,637.88,1172.89,602.6Z" transform="translate(-995 -555)"/><path class="cls-2" d="M1180.81,602.6a82.37,82.37,0,0,1,2.23-19.08l-.87-.77a83.9,83.9,0,0,0-2.39,19.85c0,31.15,17,57.94,41.14,69.41,0-.37,0-.74,0-1.12C1197.37,659.47,1180.81,633.17,1180.81,602.6Z" transform="translate(-995 -555)"/><path class="cls-2" d="M1188.93,589.15a73.3,73.3,0,0,0-1.23,13.45c0,26.11,13.53,48.74,33.15,59.62,0-.41,0-.81-.07-1.22-19-10.83-32.06-32.93-32.06-58.4a74,74,0,0,1,1.09-12.55Z" transform="translate(-995 -555)"/><path class="cls-2" d="M1219.57,650c-13.8-10.13-22.93-27.59-22.93-47.4,0-1.5.07-3,.17-4.47-.31-.4-.63-.78-.94-1.17-.16,1.85-.25,3.74-.25,5.64,0,20.54,9.66,38.59,24.16,48.81Z" transform="translate(-995 -555)"/><path class="cls-2" d="M1061.92,605.93c0,44.56-25.94,82.47-61.8,95.81.1.32.21.64.32,1,36.27-13.47,62.5-51.76,62.5-96.78a111.77,111.77,0,0,0-6.72-38.39l-.91.48A110.82,110.82,0,0,1,1061.92,605.93Z" transform="translate(-995 -555)"/><path class="cls-2" d="M1054,605.93c0,40.57-23.56,75.09-56.16,87.32.07.34.15.67.23,1,33.06-12.33,57-47.27,57-88.32a102.26,102.26,0,0,0-5.9-34.4l-.88.55A101.36,101.36,0,0,1,1054,605.93Z" transform="translate(-995 -555)"/><path class="cls-2" d="M1046.09,605.93c0,36.3-20.88,67.22-49.89,78.57,0,.34.1.69.16,1,29.5-11.42,50.75-42.78,50.75-79.6a92.66,92.66,0,0,0-4.89-29.82l-.86.63A91.67,91.67,0,0,1,1046.09,605.93Z" transform="translate(-995 -555)"/><path class="cls-2" d="M1038.17,605.93c0,31.74-17.86,58.89-42.92,69.53,0,.37,0,.73.07,1.09,25.6-10.7,43.87-38.32,43.87-70.62a83,83,0,0,0-3.7-24.59l-.85.72A81.93,81.93,0,0,1,1038.17,605.93Z" transform="translate(-995 -555)"/><path class="cls-2" d="M1028.05,588.15a73,73,0,0,1,2.2,17.78c0,26.86-14.52,50-35.22,60.08,0,.38,0,.77,0,1.15,21.3-10.14,36.27-33.77,36.27-61.23a73.74,73.74,0,0,0-2.39-18.61Z" transform="translate(-995 -555)"/><path class="cls-2" d="M1022.34,605.93c0,21.56-10.82,40.34-26.69,49.91l-.12,1.25c16.52-9.63,27.83-28.94,27.83-51.16a63.89,63.89,0,0,0-1.05-11.59l-.87,1A63.13,63.13,0,0,1,1022.34,605.93Z" transform="translate(-995 -555)"/></g></svg>