<svg id="Слой_1" data-name="Слой 1" xmlns="http://www.w3.org/2000/svg" viewBox="0 0 225.05 225.06"><defs><style>.cls-1{fill:#00a560;}.cls-2{fill:#fff;}</style></defs><title>за командный дух</title><g id="За_командный_дух" data-name="За командный дух"><path class="cls-1" d="M786.79,343.6A112.53,112.53,0,1,1,674.27,231.07,112.53,112.53,0,0,1,786.79,343.6" transform="translate(-561.74 -231.07)"/><path class="cls-2" d="M674.25,262a80.84,80.84,0,1,0,80.84,80.84A80.93,80.93,0,0,0,674.25,262m0,6.14a74.65,74.65,0,0,1,70.43,99.54c-3.76-2.07-9.77-4.48-20.26-8.23a10,10,0,0,1-2.5-1.12,6.85,6.85,0,0,1-.12-1.52c8.2-1.25,14.73-6.75,15-7a3.24,3.24,0,0,0-1.24-5.58c-1.28-.62-4.48-5.07-4.48-18.53,0-14-9.69-24.89-22.06-24.89a20.36,20.36,0,0,0-8.39,1.9c-.73-9.55-5.63-12.49-10.35-13-2.83-3.56-7.23-5-14.63-5a29.21,29.21,0,0,0-11.76,2.77c-2.86,1.17-5.34,2.18-8.66,2.18-1.83,0-5.12.79-6.6,6.11a31.43,31.43,0,0,0-.89,7.35l-.43-.17a22.46,22.46,0,0,0-9-2.08c-5.88,0-10.07,1.25-12.47,3.72-6.82.94-6.82,7.88-6.82,12.15,0,2,.21,5.26.37,7.87.06.87.11,1.67.15,2.31-2,2.11-2.93,6-2,9.84a12.68,12.68,0,0,0,5.17,7.82,6.81,6.81,0,0,0,.7.37,36.71,36.71,0,0,0,3.26,7.84v3.58a15,15,0,0,1-.07,2,7.37,7.37,0,0,1-2.54,1.19c-10.37,3.71-16.46,6.16-20.27,8.23a74.68,74.68,0,0,1,70.43-99.54m54,112.64c-4-4.48-12.65-8.71-31.61-15.57,5.1-2,6.09-4.17,6.09-8.91V353.8a3.23,3.23,0,0,0-3.23-3.23,18.39,18.39,0,0,1-6.61-1.4c.87-2.19,1.62-4.46,2.14-6.17a9.12,9.12,0,0,0,1.26-.62c3-1.83,5.57-5.75,6.53-10,1.15-5.05-.13-10.23-2.82-12.74.05-1,.14-2.46.22-3.77.11-1.81.24-3.83.34-5.74a14.31,14.31,0,0,1,8.45-2.9c7.56,0,15.6,6.46,15.6,18.42s2.36,18.21,4.76,21.42c-2.67,1.61-6.69,3.49-10.85,3.49a3.23,3.23,0,0,0-3.23,3.23v2.47c0,5,1,7.14,6.9,9.24,9.21,3.29,16.23,6,20,8.2A74.78,74.78,0,0,1,732.9,389a24.25,24.25,0,0,0-4.6-8.23m-32-24a11,11,0,0,1-.07,1.44,7.7,7.7,0,0,1-2.55,1.19l-3.26,1.17c0-.3,0-.64,0-1v-4.45a26.64,26.64,0,0,0,5.9,1.67M615.61,389a74.78,74.78,0,0,1-9.33-15.27c3.76-2.2,10.77-4.91,20-8.2,5.86-2.1,6.9-4.25,6.9-9.24v-4.63a3.67,3.67,0,0,0-.9-2.24c-.67-.77-2.15-4.6-3.17-8.19a3.4,3.4,0,0,0-3.14-2.35,6.78,6.78,0,0,1-2.09-3.64,5.69,5.69,0,0,1,.31-3.79c2.14-.78,2-2.59,1.73-7.33-.15-2.52-.35-5.66-.35-7.46,0-5.79.42-5.79,2-5.79a3.24,3.24,0,0,0,2.76-1.56c.46-.76,2.68-2.05,8.06-2.05a16.29,16.29,0,0,1,6.54,1.61c.93.38,1.9.74,2.93,1.07.12,3.19.33,6.39.47,8.61,0,.43.06.83.08,1.18-2.65,2.53-3.91,7.67-2.77,12.67a17.65,17.65,0,0,0,4.42,8.29,3.36,3.36,0,0,0-.26.54c-1,3.59-2.5,7.42-3.15,8.18a3.21,3.21,0,0,0-.92,2.25v4.63c0,4.74,1,6.91,6.09,8.91-18.95,6.86-27.55,11.09-31.61,15.57a24.21,24.21,0,0,0-4.59,8.23m39.19-29.56a10.29,10.29,0,0,1-2.5-1.12,10.71,10.71,0,0,1-.11-2v-3.58a30,30,0,0,0,2.55-5.7,36.36,36.36,0,0,0,3.35,7.31v5.27c0,.38,0,.72,0,1l-3.27-1.17" transform="translate(-561.74 -231.07)"/><path class="cls-1" d="M655.39,348.72a23.16,23.16,0,0,0-2.27-5.21,8,8,0,0,0-3.07-2.84l-4.27,3.13a56,56,0,0,1,3.59,4.69c1.08,1.73,2.82,4.2,2.82,4.2l.11,5.61-6.52,4.41,6,2.47s5.37-2.88,5.82-3.82.44-.77.44-.77L656.78,352Z" transform="translate(-561.74 -231.07)"/><path class="cls-1" d="M647.85,301.38s0,4,0,6.28v4.18h-4a56.88,56.88,0,0,1,0-6.13c.14-4.61-.07-7.21-.07-7.21" transform="translate(-561.74 -231.07)"/><path class="cls-1" d="M700.5,301.38s0,4,0,6.28v4.18h4a60.93,60.93,0,0,0,0-6.13c-.14-4.61.06-7.21.06-7.21" transform="translate(-561.74 -231.07)"/><path class="cls-1" d="M694.25,345.58a52.45,52.45,0,0,1-1.88,5.29c-.8,1.66-2,4.25-2,4.25l0,5.47s2.41,2.86,4.33,3.72,5.73.87,5.73.87v-1.44l-4.25-5.51,2.56-10.12Z" transform="translate(-561.74 -231.07)"/><path class="cls-2" d="M674.08,237.54A105.22,105.22,0,1,0,779.3,342.76,105.34,105.34,0,0,0,674.08,237.54m0,212.24a107,107,0,1,1,107-107,107.13,107.13,0,0,1-107,107" transform="translate(-561.74 -231.07)"/><path class="cls-2" d="M674.08,246.36a96.4,96.4,0,1,0,96.41,96.4,96.51,96.51,0,0,0-96.41-96.4m0,194.6a98.2,98.2,0,1,1,98.2-98.2,98.31,98.31,0,0,1-98.2,98.2" transform="translate(-561.74 -231.07)"/><path class="cls-2" d="M674.08,255.18a87.58,87.58,0,1,0,87.59,87.58,87.68,87.68,0,0,0-87.59-87.58m0,177a89.38,89.38,0,1,1,89.39-89.38,89.48,89.48,0,0,1-89.39,89.38" transform="translate(-561.74 -231.07)"/><path class="cls-2" d="M674.08,264a78.76,78.76,0,1,0,78.77,78.76A78.85,78.85,0,0,0,674.08,264m0,159.32a80.56,80.56,0,1,1,80.57-80.56,80.65,80.65,0,0,1-80.57,80.56" transform="translate(-561.74 -231.07)"/></g></svg>