<svg id="Слой_1" data-name="Слой 1" xmlns="http://www.w3.org/2000/svg" xmlns:xlink="http://www.w3.org/1999/xlink" viewBox="0 0 225.06 225.05"><defs><style>.cls-1,.cls-5{fill:none;}.cls-2{fill:#475deb;}.cls-3{clip-path:url(#clip-path);}.cls-4{fill:#fff;}.cls-5{stroke:#fff;stroke-miterlimit:10;}.cls-6{clip-path:url(#clip-path-2);}</style><clipPath id="clip-path" transform="translate(-292.56 -223.23)"><polygon class="cls-1" points="306.23 285.58 296.65 334.1 324.02 365.4 374.49 379.31 391.44 371.34 383.54 353.29 361.31 303.71 357.55 262.66 333.6 259.24 306.23 285.58"/></clipPath><clipPath id="clip-path-2" transform="translate(-292.56 -223.23)"><polygon class="cls-1" points="455.58 262.66 451.82 303.71 429.58 353.29 421.69 371.34 438.63 379.31 489.11 365.4 516.47 334.1 506.89 285.58 479.53 259.24 455.58 262.66"/></clipPath></defs><title>за результативность</title><g id="За_результативность" data-name="За результативность"><path class="cls-2" d="M517.61,335.76A112.53,112.53,0,1,1,405.08,223.23,112.53,112.53,0,0,1,517.61,335.76" transform="translate(-292.56 -223.23)"/><g class="cls-3"><path class="cls-4" d="M354.2,271.11h-.82c-13.21.21-24.53,5.42-31.87,14.68s-9.86,21.47-7.06,34.38,10.61,25.06,22,34.09c11.14,8.84,24.38,13.68,37.38,13.68h.82c13.2-.21,24.52-5.42,31.87-14.68s9.86-21.46,7.06-34.37-10.62-25.07-22-34.09c-11.13-8.84-24.37-13.68-37.37-13.68m19.61,98.18c-13.3,0-26.84-5-38.21-14-11.62-9.21-19.6-21.6-22.47-34.86s-.29-25.92,7.32-35.5,19.29-15,32.91-15.18,27.44,4.74,39.05,14,19.59,21.6,22.47,34.86.28,25.92-7.32,35.5-19.29,15-32.91,15.19h-.84" transform="translate(-292.56 -223.23)"/><path class="cls-5" d="M354.2,271.11h-.82c-13.21.21-24.53,5.42-31.87,14.68s-9.86,21.47-7.06,34.38,10.61,25.06,22,34.09c11.14,8.84,24.38,13.68,37.38,13.68h.82c13.2-.21,24.52-5.42,31.87-14.68s9.86-21.46,7.06-34.37-10.62-25.07-22-34.09C380.44,276,367.2,271.11,354.2,271.11Zm19.61,98.18c-13.3,0-26.84-5-38.21-14-11.62-9.21-19.6-21.6-22.47-34.86s-.29-25.92,7.32-35.5,19.29-15,32.91-15.18,27.44,4.74,39.05,14,19.59,21.6,22.47,34.86.28,25.92-7.32,35.5-19.29,15-32.91,15.19Z" transform="translate(-292.56 -223.23)"/><path class="cls-4" d="M326.2,289.52h0c-6.57,8.27-8.74,19.16-6.27,30.57s9.39,22.25,19.56,30.32c9.95,7.9,21.75,12.16,33.24,12.17h.73c11.67-.18,21.78-4.77,28.34-13s8.77-19.09,6.28-30.57-9.45-22.3-19.56-30.32c-10-7.91-21.76-12.17-33.24-12.17h-.74c-11.66.19-21.77,4.78-28.34,13m-1.06-.84h0c6.82-8.59,17.3-13.33,29.37-13.55s24.43,4.18,34.85,12.45,17.47,19.27,20,31.1.25,23.13-6.54,31.69-17.29,13.36-29.37,13.55h-.75c-11.79,0-23.89-4.36-34.09-12.45-10.42-8.27-17.5-19.36-20-31.12s-.28-23.08,6.53-31.67" transform="translate(-292.56 -223.23)"/><path class="cls-5" d="M326.2,289.52h0c-6.57,8.27-8.74,19.16-6.27,30.57s9.39,22.25,19.56,30.32c9.95,7.9,21.75,12.16,33.24,12.17h.73c11.67-.18,21.78-4.77,28.34-13s8.77-19.09,6.28-30.57-9.45-22.3-19.56-30.32c-10-7.91-21.76-12.17-33.24-12.17h-.74C342.88,276.66,332.77,281.25,326.2,289.52Zm-1.06-.84h0c6.82-8.59,17.3-13.33,29.37-13.55s24.43,4.18,34.85,12.45,17.47,19.27,20,31.1.25,23.13-6.54,31.69-17.29,13.36-29.37,13.55h-.75c-11.79,0-23.89-4.36-34.09-12.45-10.42-8.27-17.5-19.36-20-31.12S318.33,297.27,325.14,288.68Z" transform="translate(-292.56 -223.23)"/><path class="cls-4" d="M330.9,293.25h0c-5.79,7.29-7.63,16.86-5.48,26.76s8.16,19.44,17.12,26.55a47.43,47.43,0,0,0,29.11,10.66h.65c10.13-.16,19-4.12,24.81-11.41s7.66-16.7,5.49-26.75-8.27-19.53-17.14-26.57a47.33,47.33,0,0,0-29.1-10.65h-.65c-10.13.16-19,4.13-24.81,11.42m-1.06-.84h0c6-7.61,15.29-11.73,25.81-11.92s21.43,3.62,30.65,10.94,15.36,16.93,17.62,27.33.22,20.35-5.75,27.88-15.31,11.75-25.83,11.92h-.67a48.68,48.68,0,0,1-30-10.94c-9.22-7.32-15.4-17.11-17.62-27.37s-.28-20.24,5.75-27.84" transform="translate(-292.56 -223.23)"/><path class="cls-5" d="M330.9,293.25h0c-5.79,7.29-7.63,16.86-5.48,26.76s8.16,19.44,17.12,26.55a47.43,47.43,0,0,0,29.11,10.66h.65c10.13-.16,19-4.12,24.81-11.41s7.66-16.7,5.49-26.75-8.27-19.53-17.14-26.57a47.33,47.33,0,0,0-29.1-10.65h-.65C345.58,282,336.68,286,330.9,293.25Zm-1.06-.84h0c6-7.61,15.29-11.73,25.81-11.92s21.43,3.62,30.65,10.94,15.36,16.93,17.62,27.33.22,20.35-5.75,27.88-15.31,11.75-25.83,11.92h-.67a48.68,48.68,0,0,1-30-10.94c-9.22-7.32-15.4-17.11-17.62-27.37S323.81,300,329.84,292.41Z" transform="translate(-292.56 -223.23)"/><path class="cls-4" d="M335.59,297h0c-5,6.31-6.51,14.56-4.69,23a42.27,42.27,0,0,0,39.67,31.93h.56c8.59-.13,16.28-3.48,21.28-9.78s6.57-14.32,4.71-22.94a42.26,42.26,0,0,0-39.68-31.94h-.57c-8.59.13-16.27,3.48-21.28,9.78m-1-.84h0c5.25-6.61,13.29-10.13,22.26-10.28a43.56,43.56,0,0,1,41.64,33c1.95,9,.19,17.56-5,24.06s-13.31,10.14-22.29,10.28h-.58a43.55,43.55,0,0,1-41-33c-1.89-8.78-.29-17.41,5-24" transform="translate(-292.56 -223.23)"/><path class="cls-5" d="M335.59,297h0c-5,6.31-6.51,14.56-4.69,23a42.27,42.27,0,0,0,39.67,31.93h.56c8.59-.13,16.28-3.48,21.28-9.78s6.57-14.32,4.71-22.94a42.26,42.26,0,0,0-39.68-31.94h-.57C348.28,287.32,340.6,290.67,335.59,297Zm-1-.84h0c5.25-6.61,13.29-10.13,22.26-10.28a43.56,43.56,0,0,1,41.64,33c1.95,9,.19,17.56-5,24.06s-13.31,10.14-22.29,10.28h-.58a43.55,43.55,0,0,1-41-33C327.69,311.38,329.29,302.75,334.54,296.13Z" transform="translate(-292.56 -223.23)"/><path class="cls-4" d="M340.29,300.7c-8.46,10.66-4.71,27.78,8.36,38.16s30.6,10.15,39.07-.52c4.08-5.14,5.47-11.93,3.92-19.12a33.8,33.8,0,0,0-12.29-19c-13.07-10.38-30.6-10.14-39.06.52m29.24,47.14a35.34,35.34,0,0,1-21.72-7.92c-13.65-10.84-17.5-28.81-8.58-40.06s27.3-11.58,41-.73A35.09,35.09,0,0,1,393,318.94c1.65,7.58.16,14.77-4.18,20.24-4.57,5.76-11.62,8.66-19.24,8.66" transform="translate(-292.56 -223.23)"/><path class="cls-5" d="M340.29,300.7c-8.46,10.66-4.71,27.78,8.36,38.16s30.6,10.15,39.07-.52c4.08-5.14,5.47-11.93,3.92-19.12a33.8,33.8,0,0,0-12.29-19C366.28,289.8,348.75,290,340.29,300.7Zm29.24,47.14a35.34,35.34,0,0,1-21.72-7.92c-13.65-10.84-17.5-28.81-8.58-40.06s27.3-11.58,41-.73A35.09,35.09,0,0,1,393,318.94c1.65,7.58.16,14.77-4.18,20.24C384.2,344.94,377.15,347.84,369.53,347.84Z" transform="translate(-292.56 -223.23)"/></g><g class="cls-6"><path class="cls-4" d="M458.94,271.13c-12.48,0-25.89,4.54-37.39,13.66-23.43,18.6-30.13,49.31-14.92,68.46s46.63,19.61,70.07,1c11.37-9,19.18-21.13,22-34.09s.29-25.12-7.06-34.38c-7.74-9.76-19.71-14.66-32.68-14.66m-19.63,98.13c-13.37,0-25.73-5.08-33.74-15.17-15.66-19.74-8.87-51.3,15.15-70.36s56.3-18.51,72,1.22c7.6,9.58,10.2,22.19,7.32,35.5s-10.85,25.64-22.47,34.86-25.44,13.95-38.22,13.95" transform="translate(-292.56 -223.23)"/><path class="cls-5" d="M458.94,271.13c-12.48,0-25.89,4.54-37.39,13.66-23.43,18.6-30.13,49.31-14.92,68.46s46.63,19.61,70.07,1c11.37-9,19.18-21.13,22-34.09s.29-25.12-7.06-34.38C483.88,276,471.91,271.13,458.94,271.13Zm-19.63,98.13c-13.37,0-25.73-5.08-33.74-15.17-15.66-19.74-8.87-51.3,15.15-70.36s56.3-18.51,72,1.22c7.6,9.58,10.2,22.19,7.32,35.5s-10.85,25.64-22.47,34.86S452.09,369.26,439.31,369.26Z" transform="translate(-292.56 -223.23)"/><path class="cls-4" d="M424.61,288.64c-10.41,8.26-17.16,19.25-19.56,30.39s-.42,22.06,6.27,30.5,17,12.83,28.28,13,23.63-3.89,34-12.15c10.17-8.07,17.07-18.87,19.56-30.32s.3-22.3-6.27-30.57c-6.7-8.45-17-12.85-28.3-13h-.76c-11.18,0-23.08,4.08-33.26,12.16m-.84-1.06c10.63-8.43,23.12-12.6,34.79-12.44S481,279.89,488,288.68c6.82,8.59,9.09,19.88,6.54,31.67s-9.62,22.85-20,31.12-22.62,12.44-34.09,12.44h-.78c-11.72-.19-22.38-4.76-29.34-13.54s-9-20.24-6.51-31.73,9.39-22.62,20-31.05" transform="translate(-292.56 -223.23)"/><path class="cls-5" d="M424.61,288.64c-10.41,8.26-17.16,19.25-19.56,30.39s-.42,22.06,6.27,30.5,17,12.83,28.28,13,23.63-3.89,34-12.15c10.17-8.07,17.07-18.87,19.56-30.32s.3-22.3-6.27-30.57c-6.7-8.45-17-12.85-28.3-13h-.76C446.69,276.48,434.79,280.56,424.61,288.64Zm-.84-1.06c10.63-8.43,23.12-12.6,34.79-12.44S481,279.89,488,288.68c6.82,8.59,9.09,19.88,6.54,31.67s-9.62,22.85-20,31.12-22.62,12.44-34.09,12.44h-.78c-11.72-.19-22.38-4.76-29.34-13.54s-9-20.24-6.51-31.73S413.15,296,423.77,287.58Z" transform="translate(-292.56 -223.23)"/><path class="cls-4" d="M427.66,292.48c-9.05,7.2-15,16.77-17.13,26.62s-.34,19.36,5.49,26.7,14.77,11.24,24.76,11.41,20.75-3.46,29.81-10.65,15-16.61,17.12-26.55.31-19.47-5.48-26.76S467.45,282,457.45,281.84h-.65a47.42,47.42,0,0,0-29.14,10.65m-.83-1.05a48.67,48.67,0,0,1,30.58-10.94c10.42.16,19.78,4.23,25.88,11.92s8,17.56,5.75,27.84-8.4,20.05-17.62,27.37a48.7,48.7,0,0,1-30,10.94h-.68c-10.4-.17-19.73-4.24-25.82-11.91s-7.94-17.72-5.73-27.9,8.31-19.94,17.6-27.31" transform="translate(-292.56 -223.23)"/><path class="cls-5" d="M427.66,292.48c-9.05,7.2-15,16.77-17.13,26.62s-.34,19.36,5.49,26.7,14.77,11.24,24.76,11.41,20.75-3.46,29.81-10.65,15-16.61,17.12-26.55.31-19.47-5.48-26.76S467.45,282,457.45,281.84h-.65A47.42,47.42,0,0,0,427.66,292.48Zm-.83-1.05a48.67,48.67,0,0,1,30.58-10.94c10.42.16,19.78,4.23,25.88,11.92s8,17.56,5.75,27.84-8.4,20.05-17.62,27.37a48.7,48.7,0,0,1-30,10.94h-.68c-10.4-.17-19.73-4.24-25.82-11.91s-7.94-17.72-5.73-27.9S417.54,298.8,426.83,291.43Z" transform="translate(-292.56 -223.23)"/><path class="cls-4" d="M430.72,296.33A40.55,40.55,0,0,0,416,319.16c-1.83,8.47-.25,16.67,4.71,22.91s12.57,9.64,21.24,9.78a42.21,42.21,0,0,0,40.27-31.92c1.82-8.4.31-16.65-4.7-23s-12.58-9.64-21.25-9.78h-.56a40.67,40.67,0,0,0-25,9.14m-.84-1.05a42.08,42.08,0,0,1,26.39-9.44c9.09.14,17.1,3.72,22.32,10.29s6.85,15.25,5,24a43.57,43.57,0,0,1-41,33H442c-9.08-.14-17.08-3.72-22.29-10.29s-6.89-15.19-5-24.07a41.89,41.89,0,0,1,15.18-23.56" transform="translate(-292.56 -223.23)"/><path class="cls-5" d="M430.72,296.33A40.55,40.55,0,0,0,416,319.16c-1.83,8.47-.25,16.67,4.71,22.91s12.57,9.64,21.24,9.78a42.21,42.21,0,0,0,40.27-31.92c1.82-8.4.31-16.65-4.7-23s-12.58-9.64-21.25-9.78h-.56A40.67,40.67,0,0,0,430.72,296.33Zm-.84-1.05a42.08,42.08,0,0,1,26.39-9.44c9.09.14,17.1,3.72,22.32,10.29s6.85,15.25,5,24a43.57,43.57,0,0,1-41,33H442c-9.08-.14-17.08-3.72-22.29-10.29s-6.89-15.19-5-24.07A41.89,41.89,0,0,1,429.88,295.28Z" transform="translate(-292.56 -223.23)"/><path class="cls-4" d="M454.65,292.54a35.32,35.32,0,0,0-33.16,26.68c-1.55,7.19-.16,14,3.92,19.12s10.38,8.05,17.73,8.16a34,34,0,0,0,21.34-7.64c13.07-10.38,16.82-27.5,8.36-38.16-4.09-5.14-10.38-8-17.73-8.16h-.46m-11,55.31h-.48c-7.76-.12-14.42-3.2-18.76-8.67s-5.83-12.66-4.19-20.24a36.66,36.66,0,0,1,35-27.75c7.76.13,14.43,3.2,18.77,8.67,8.92,11.25,5.07,29.22-8.59,40.06a35.23,35.23,0,0,1-21.71,7.93" transform="translate(-292.56 -223.23)"/><path class="cls-5" d="M454.65,292.54a35.32,35.32,0,0,0-33.16,26.68c-1.55,7.19-.16,14,3.92,19.12s10.38,8.05,17.73,8.16a34,34,0,0,0,21.34-7.64c13.07-10.38,16.82-27.5,8.36-38.16-4.09-5.14-10.38-8-17.73-8.16Zm-11,55.31h-.48c-7.76-.12-14.42-3.2-18.76-8.67s-5.83-12.66-4.19-20.24a36.66,36.66,0,0,1,35-27.75c7.76.13,14.43,3.2,18.77,8.67,8.92,11.25,5.07,29.22-8.59,40.06A35.23,35.23,0,0,1,443.6,347.85Z" transform="translate(-292.56 -223.23)"/></g><path class="cls-4" d="M393.59,395.46H418c1.31-17.15,10.64-24.91,22.54-44.39,14.32-19,23.85-49.51,24.64-84.15a4,4,0,0,0-4-4.05H350.37a4,4,0,0,0-4,4.05c.79,34.7,10.35,65.22,24.72,84.24,11.87,19.41,21.17,27.18,22.47,44.3" transform="translate(-292.56 -223.23)"/><path class="cls-2" d="M461.24,262.86a4,4,0,0,1,4,4.06c-.79,34.64-10.32,65.12-24.64,84.15-11.9,19.48-21.23,27.24-22.53,44.39H393.59c-1.3-17.12-10.6-24.89-22.47-44.3-14.36-19-23.93-49.54-24.72-84.24a4,4,0,0,1,4-4.06H461.24m0-7.19H350.37a11.17,11.17,0,0,0-11.16,11.42c.8,35.05,10.25,67.15,26,88.12,3.28,5.35,6.37,9.82,9.09,13.78,7.09,10.3,11.37,16.52,12.17,27l.51,6.65h37.76l.51-6.65c.8-10.5,5.08-16.72,12.17-27,2.74-4,5.84-8.49,9.15-13.88,15.65-21,25.08-53,25.87-88a11.17,11.17,0,0,0-11.15-11.41" transform="translate(-292.56 -223.23)"/><path class="cls-2" d="M380.83,306.42l16.34-3.13a1.2,1.2,0,0,0,.7-.51l8-14.57c.13-.23.33-.23.46,0l8,14.57a1.2,1.2,0,0,0,.7.51l16.34,3.14c.26.05.32.24.15.44L420.2,319a1.16,1.16,0,0,0-.27.82l2.07,16.5c0,.26-.14.39-.37.27l-15.07-7.06a1.16,1.16,0,0,0-.86,0l-15.06,7.07c-.24.11-.41,0-.38-.27l2.07-16.51a1.16,1.16,0,0,0-.27-.82l-11.37-12.14c-.19-.2-.12-.39.14-.45" transform="translate(-292.56 -223.23)"/><rect class="cls-4" x="72.54" y="193.28" width="81.42" height="1.35"/><rect class="cls-5" x="72.54" y="193.28" width="81.42" height="1.35"/><rect class="cls-4" x="72.54" y="197.87" width="81.42" height="1.35"/><rect class="cls-5" x="72.54" y="197.87" width="81.42" height="1.35"/><rect class="cls-4" x="72.54" y="179.56" width="81.42" height="1.35"/><rect class="cls-5" x="72.54" y="179.56" width="81.42" height="1.35"/><rect class="cls-4" x="72.54" y="184.15" width="81.42" height="1.35"/><rect class="cls-5" x="72.54" y="184.15" width="81.42" height="1.35"/><rect class="cls-4" x="72.54" y="188.73" width="81.42" height="1.35"/><rect class="cls-5" x="72.54" y="188.73" width="81.42" height="1.35"/></g></svg>