<svg id="Слой_1" data-name="Слой 1" xmlns="http://www.w3.org/2000/svg" viewBox="0 0 226 226"><defs><style>.cls-1{fill:#475deb;}.cls-2{fill:#fff;}.cls-3{fill:none;stroke:#fff;stroke-width:6px;}</style></defs><title>за самостоятельность</title><g id="За_самостоятельность" data-name="За самостоятельность"><path class="cls-1" d="M233,668A113,113,0,1,1,346,781,113,113,0,0,1,233,668" transform="translate(-233 -555)"/><path class="cls-2" d="M455,697.71c-34.91-13.92-60-51.3-60-95.11a111.23,111.23,0,0,1,5.19-33.75l-.92-.49A112.46,112.46,0,0,0,394,602.6c0,44.29,25.38,82.06,60.74,96.1C454.87,698.37,455,698,455,697.71Z" transform="translate(-233 -555)"/><path class="cls-2" d="M403,602.6a101.77,101.77,0,0,1,4.48-30l-.89-.57A102.49,102.49,0,0,0,402,602.6c0,40.15,22.86,74.45,54.78,87.48.07-.34.13-.68.2-1C425.47,676.12,403,642.25,403,602.6Z" transform="translate(-233 -555)"/><path class="cls-2" d="M410.89,602.6a92,92,0,0,1,3.34-24.68l-.87-.65a93.13,93.13,0,0,0-3.49,25.33c0,35.82,20.11,66.47,48.36,78.63l.12-1.06C430.61,668.08,410.89,637.88,410.89,602.6Z" transform="translate(-233 -555)"/><path class="cls-2" d="M418.81,602.6a82.09,82.09,0,0,1,2.45-20l-.86-.76a83.22,83.22,0,0,0-2.61,20.71c0,31.13,17,57.9,41.09,69.39,0-.37,0-.75,0-1.12C435.35,659.44,418.81,633.15,418.81,602.6Z" transform="translate(-233 -555)"/><path class="cls-2" d="M426.93,589.15a73.3,73.3,0,0,0-1.23,13.45c0,26.11,13.53,48.74,33.15,59.62,0-.41-.05-.81-.07-1.22-19-10.83-32.06-32.93-32.06-58.4a74,74,0,0,1,1.09-12.55Z" transform="translate(-233 -555)"/><path class="cls-2" d="M457,649.55c-13.45-10.19-22.31-27.43-22.31-46.95,0-1,0-2,.07-3-.31-.4-.63-.79-.94-1.18-.09,1.37-.15,2.75-.15,4.15,0,20.25,9.4,38.09,23.57,48.38Z" transform="translate(-233 -555)"/><path class="cls-2" d="M299.92,605.93c0,44.56-25.94,82.47-61.8,95.81.1.32.21.64.32,1,36.27-13.47,62.5-51.76,62.5-96.78a111.77,111.77,0,0,0-6.72-38.39l-.91.48A110.82,110.82,0,0,1,299.92,605.93Z" transform="translate(-233 -555)"/><path class="cls-2" d="M292,605.93c0,40.57-23.56,75.09-56.16,87.32.07.34.15.67.23,1,33.06-12.33,57-47.27,57-88.32a102.26,102.26,0,0,0-5.9-34.4l-.88.55A101.36,101.36,0,0,1,292,605.93Z" transform="translate(-233 -555)"/><path class="cls-2" d="M284.09,605.93c0,36.3-20.88,67.22-49.89,78.57.05.34.1.69.16,1,29.5-11.42,50.75-42.78,50.75-79.6a92.66,92.66,0,0,0-4.89-29.82l-.86.63A91.67,91.67,0,0,1,284.09,605.93Z" transform="translate(-233 -555)"/><path class="cls-2" d="M276.17,605.93c0,31.74-17.86,58.89-42.92,69.53,0,.37,0,.73.07,1.09,25.6-10.7,43.87-38.32,43.87-70.62a83,83,0,0,0-3.7-24.59l-.85.72A81.93,81.93,0,0,1,276.17,605.93Z" transform="translate(-233 -555)"/><path class="cls-2" d="M266.15,588.54a72.84,72.84,0,0,1,2.1,17.39c0,26.65-14.29,49.62-34.74,59.84,0,.38,0,.76,0,1.15,21-10.27,35.79-33.74,35.79-61A73.54,73.54,0,0,0,267,587.7Q266.55,588.11,266.15,588.54Z" transform="translate(-233 -555)"/><path class="cls-2" d="M260.34,605.93c0,21.56-10.82,40.34-26.69,49.91l-.12,1.25c16.52-9.63,27.83-28.94,27.83-51.16a63.89,63.89,0,0,0-1.05-11.59l-.87,1A63.13,63.13,0,0,1,260.34,605.93Z" transform="translate(-233 -555)"/><path class="cls-3" d="M377.58,665.07c-8.75,2.21-11.41,4.64-13.61,6.59a12.74,12.74,0,0,1,7.84,10.48,22.81,22.81,0,0,0-5.1-5.79c-.33-.24-1.11-.72-1.92-1.18-.42-.24-1.66-.87-2.06-1-.65-.26-1.5-.58-2.05-.76-.9-.29-1.86-.58-2.4-.71-1-.24-2-.46-2.48-.54-4.74-.79-11.47-1.19-17.19,1.24-10,4.26-12.42,7.21-12.42,7.21s2.26-10,2.26-14.56-.26-14-.26-15.56.51-6.78.51-6.78,3-7.53,4.77-10.54a43.4,43.4,0,0,1,4.77-6.28,20.32,20.32,0,0,0,6-.5,45.41,45.41,0,0,0,7-3s3.26.75,4.27-.25,1.5-1.26,3.76-.25,4.77,0,5.27-.76a5.65,5.65,0,0,0,.57-1.13,2.92,2.92,0,0,0,0-.86,1.92,1.92,0,0,0-.13-.46,1.64,1.64,0,0,0-.23-.24l-.23-.21a1,1,0,0,1-.22-.26,2.18,2.18,0,0,1,.22-1.35l1.11-1.75a7.72,7.72,0,0,0,.43-.87,2.37,2.37,0,0,0,.16-.89,3.18,3.18,0,0,0-.94-2c-1-.75-8.54-6.52-9.79-7s-5-2-8,0-18.07,10.55-18.07,10.55-6.53,6-9,9.29-12.3,18.82-12.8,20.58S297,666.27,297,676.56a181.21,181.21,0,0,1-1.51,23.85,63.3,63.3,0,0,0-.89,6.34c0,1,.07,2.16.14,2.86.16,1.67,2,2.68,2.84,3.35a9.13,9.13,0,0,0,3.16,1.1c.49.11,1.79.33,3.2.59.29.05,4.39.23,5.56.43l3.58.62,1.14.2c.71.12,2.12.42,3.54.74,1.75.39,3.51.81,3.93.94l3.26,1.08c1,.33,4.25,1.32,5.81,1.75s3.18.86,4.22,1.09c1.31.28,2.57.53,3.25.62,2.26.32,5,.66,6.67.83a68.86,68.86,0,0,0,8.79,0,47.62,47.62,0,0,0,5.59-.49c2-.45,3.89-1,5.58-1.5,6.28-2,9.29-3.52,10.55-4.27s3-.5,6.52,2.26a97.34,97.34,0,0,0,11.55,8,40.57,40.57,0,0,0,9.54,4.52V668.27s-5-4.49-18-4.1A34.67,34.67,0,0,0,377.58,665.07Z" transform="translate(-233 -555)"/></g></svg>