<svg id="Слой_1" data-name="Слой 1" xmlns="http://www.w3.org/2000/svg" viewBox="0 0 226 228.72"><defs><style>.cls-1{fill:#00a560;}.cls-2{fill:none;stroke:#fff;stroke-miterlimit:10;stroke-width:1.7px;}.cls-3{fill:#fff;}</style></defs><title>за внимательность</title><g id="За_внимательность" data-name="За внимательность"><path class="cls-1" d="M1503,668a113,113,0,1,1,113,113,113,113,0,0,1-113-113" transform="translate(-1503 -555)"/><path class="cls-1" d="M1503,668a113,113,0,1,1,113,113,113,113,0,0,1-113-113" transform="translate(-1503 -555)"/><path class="cls-2" d="M1616.73,598.18A71.75,71.75,0,0,0,1545,669.93c0,21.58,7.61,39.31,22.69,52.46l-.64,31.76,26.49-16.46c9.65,3.73,13.3,4,23.21,4a71.75,71.75,0,0,0,0-143.5Z" transform="translate(-1503 -555)"/><path class="cls-2" d="M1616.86,588.71a80.49,80.49,0,0,0-80.49,80.48c0,24.21,5.34,41.76,22.26,56.51l.25,39.82,1.73,1,33.64-19.7c9.82,2.83,11.83,3.53,22.37,3.69,44.45.69,80.72-36.86,80.72-81.31A80.48,80.48,0,0,0,1616.86,588.71Z" transform="translate(-1503 -555)"/><path class="cls-2" d="M1617.13,578.74c-49.38,0-90.51,39.78-90.07,89.16.25,27,4.33,44.32,23.11,62l.81,52.3L1594.09,756a100.8,100.8,0,0,0,22.89,3.24c51,.54,89.55-41.73,89.55-91.1A89.41,89.41,0,0,0,1617.13,578.74Z" transform="translate(-1503 -555)"/><rect class="cls-3" x="109.6" y="64.98" width="13.12" height="72.16"/><circle class="cls-3" cx="116.16" cy="158.92" r="6.56"/></g></svg>