<svg id="Слой_1" data-name="Слой 1" xmlns="http://www.w3.org/2000/svg" viewBox="0 0 226 226"><defs><style>.cls-1{fill:#475deb;}.cls-2,.cls-3{fill:none;stroke:#fff;stroke-miterlimit:10;}.cls-2{stroke-width:2px;}.cls-3{stroke-width:5px;}</style></defs><title>за организацию процесса</title><g id="За_организ._процесса" data-name="За организ. процесса"><path class="cls-1" d="M1249,668a113,113,0,1,1,113,113,113,113,0,0,1-113-113" transform="translate(-1249 -555)"/><circle class="cls-2" cx="113.5" cy="112.5" r="104.5"/><circle class="cls-2" cx="113.5" cy="112.5" r="94.5"/><circle class="cls-2" cx="113.5" cy="112.5" r="84.5"/><path class="cls-3" d="M1362,673.82c6.66,0,11.64-5.58,11.64-12.47v-4.16c0-6.88-5-12.46-11.64-12.46s-11.64,5.58-11.64,12.46v4.16C1350.36,668.24,1355.34,673.82,1362,673.82Z" transform="translate(-1249 -555)"/><path class="cls-3" d="M1385.27,691.27v-5.94c0-8-15.54-11.63-23.27-11.63s-23.27,3.61-23.27,11.63v5.94" transform="translate(-1249 -555)"/><path class="cls-3" d="M1362,609.82A58.18,58.18,0,0,0,1303.82,668v2.91H1298l14.55,20.36,11.63-20.36h-5.82V668a43.64,43.64,0,0,1,80.56-23.27" transform="translate(-1249 -555)"/><path class="cls-3" d="M1391.33,617.74a58.36,58.36,0,0,1,5.82,3.89" transform="translate(-1249 -555)"/><path class="cls-3" d="M1379.76,612.58a59,59,0,0,1,5.57,2.1" transform="translate(-1249 -555)"/><path class="cls-3" d="M1368,610.12q2.74.28,5.42.81" transform="translate(-1249 -555)"/><path class="cls-3" d="M1362.24,726.18A58,58,0,0,0,1420.18,668v-2.91H1426l-14.55-20.36-11.63,20.36h5.82V668c0,24.1-19,43.64-43.13,43.64a43.58,43.58,0,0,1-36.92-20.37" transform="translate(-1249 -555)"/><path class="cls-3" d="M1332.92,718.26a57.37,57.37,0,0,1-5.83-3.89" transform="translate(-1249 -555)"/><path class="cls-3" d="M1344.48,723.42a59,59,0,0,1-5.57-2.1" transform="translate(-1249 -555)"/><path class="cls-3" d="M1356.29,725.88q-2.74-.28-5.42-.81" transform="translate(-1249 -555)"/></g></svg>