<svg id="Слой_1" data-name="Слой 1" xmlns="http://www.w3.org/2000/svg" viewBox="0 0 226 226.5"><defs><style>.cls-1{fill:#00a560;}.cls-2{fill:none;stroke:#fff;stroke-miterlimit:10;}.cls-3{fill:#fff;}</style></defs><title>за ответственность</title><g id="За_ответственность" data-name="За ответственность"><path class="cls-1" d="M1147,344a113,113,0,1,1,113,113,113,113,0,0,1-113-113" transform="translate(-1147 -230.5)"/><path class="cls-2" d="M1329.62,371.14,1371,322.57a111.86,111.86,0,0,0-6.39-21.43l-60.7-13.68-34.33-56c-3.14-.27-6.33-.41-9.54-.41s-6.51.15-9.7.42l-34.22,56.12-60.75,13.82a112,112,0,0,0-6.32,21.36l41.46,48.55-6.3,56.51A113.51,113.51,0,0,0,1207.31,444l52.78-23.92,52.81,23.79A113.14,113.14,0,0,0,1336,427.57Z" transform="translate(-1147 -230.5)"/><polygon class="cls-2" points="53.88 137.57 6.1 81.62 75.41 65.85 112.91 4.34 150.54 65.78 219.88 81.41 172.2 137.47 180.32 208.89 113.08 178.6 45.91 209.03 53.88 137.57"/><polygon class="cls-2" points="64.3 134.38 24.44 87.7 81.75 74.66 112.93 23.52 144.22 74.61 201.55 87.53 161.77 134.29 168.4 192.55 113.07 167.63 57.8 192.67 64.3 134.38"/><path class="cls-3" d="M1232.67,314.53a5,5,0,0,0,3.74-2.72L1260,273.2l23.62,38.57a5,5,0,0,0,3.74,2.71l42.91,9.67-30.17,35.47a5,5,0,0,0-1.43,4.39l4.86,42.7-41.12-18.51a5,5,0,0,0-4.61,0l-41.07,18.6,4.77-42.72a5,5,0,0,0-1.43-4.39l-30.24-35.41Z" transform="translate(-1147 -230.5)"/><path class="cls-1" d="M1249.49,330.2a1.92,1.92,0,0,0,1.44-1l9-14.85,9.08,14.83a1.91,1.91,0,0,0,1.44,1.05l16.5,3.72-11.6,13.63a1.9,1.9,0,0,0-.55,1.69l1.87,16.42-15.81-7.12a1.91,1.91,0,0,0-1.77,0l-15.8,7.16,1.84-16.43a1.93,1.93,0,0,0-.55-1.69L1233,334Z" transform="translate(-1147 -230.5)"/></g></svg>