<svg id="Слой_1" data-name="Слой 1" xmlns="http://www.w3.org/2000/svg" viewBox="0 0 226 226"><defs><style>.cls-1{fill:#00a560;}.cls-2{fill:#fff;}</style></defs><title>за отзывчивость</title><g id="За_отзывчивость" data-name="За отзывчивость"><path class="cls-1" d="M1446,344a113,113,0,1,1,113,113,113,113,0,0,1-113-113" transform="translate(-1446 -231)"/><path class="cls-2" d="M1490.73,434l.83.64c17.76-14.61,41.37-23.65,67.33-23.9,26.31-.25,50.39,8.55,68.51,23.16.28-.21.56-.42.83-.64-18.32-14.84-42.7-23.8-69.35-23.54C1532.59,410,1508.68,419.2,1490.73,434Z" transform="translate(-1446 -231)"/><path class="cls-2" d="M1497.78,439l.91.58a100.29,100.29,0,0,1,121.64-.65l.9-.59a101.28,101.28,0,0,0-123.45.66Z" transform="translate(-1446 -231)"/><path class="cls-2" d="M1505.43,443.52l1,.52a90.78,90.78,0,0,1,106.21-.56l1-.53a91.72,91.72,0,0,0-108.18.57Z" transform="translate(-1446 -231)"/><path class="cls-2" d="M1513.83,447.6c.37.16.73.33,1.1.48a81.38,81.38,0,0,1,89.22-.47l1.1-.48a82.32,82.32,0,0,0-91.42.47Z" transform="translate(-1446 -231)"/><path class="cls-2" d="M1523.34,451.25l1.29.42a72,72,0,0,1,69.86-.36l1.3-.44a72.87,72.87,0,0,0-72.45.38Z" transform="translate(-1446 -231)"/><path class="cls-2" d="M1535,454.43l1.76.37a62.64,62.64,0,0,1,45.73-.24l1.79-.39a63.66,63.66,0,0,0-49.28.26Z" transform="translate(-1446 -231)"/><path class="cls-2" d="M1632.75,258.38l-.79-.66c-18.13,16.63-43.36,27.08-71.31,27.35-29.05.28-55.36-10.48-74-27.9l-.78.67c18.79,17.64,45.4,28.54,74.76,28.25C1588.92,285.82,1614.43,275.23,1632.75,258.38Z" transform="translate(-1446 -231)"/><path class="cls-2" d="M1626.15,253.11l-.84-.61c-16.52,15-39.41,24.41-64.74,24.66-26.34.25-50.22-9.45-67.17-25.17-.29.2-.56.4-.84.61,17.14,16,41.33,25.84,68,25.58C1586.25,277.93,1609.44,268.36,1626.15,253.11Z" transform="translate(-1446 -231)"/><path class="cls-2" d="M1619.05,248.27l-.91-.57c-14.86,13.12-35.18,21.32-57.65,21.54-23.38.23-44.61-8.24-59.88-22l-.9.55c15.47,14,37,22.7,60.79,22.47C1583.34,270,1604,261.66,1619.05,248.27Z" transform="translate(-1446 -231)"/><path class="cls-2" d="M1611.42,243.88l-1-.51a80.75,80.75,0,0,1-102.07-.42l-1,.5a81.73,81.73,0,0,0,104,.43Z" transform="translate(-1446 -231)"/><path class="cls-2" d="M1603.11,239.93l-1.08-.44a71.38,71.38,0,0,1-85.19-.36l-1.09.45a72.33,72.33,0,0,0,87.36.35Z" transform="translate(-1446 -231)"/><path class="cls-2" d="M1593.8,236.47l-1.25-.41a62.07,62.07,0,0,1-66.2-.26l-1.25.38a63,63,0,0,0,68.7.29Z" transform="translate(-1446 -231)"/><path class="cls-2" d="M1640.72,336.13,1615.38,296a2.65,2.65,0,0,0-3.67-.81l-17.77,11.38a2.66,2.66,0,0,0-.81,3.64l1.52,2.4-3.68,1.48a1.84,1.84,0,0,1-1.11.1l-11.35-2.38a50.65,50.65,0,0,0-19.78-.23l-10.67,2a15.57,15.57,0,0,0-7.75,3.91l-9.93-1.58a1.7,1.7,0,0,1-.59-.19l-4.52-2.35,1.27-2a2.63,2.63,0,0,0,.35-2,2.69,2.69,0,0,0-1.17-1.66l-17.65-11.14a2.65,2.65,0,0,0-3.65.83l-25.34,40.14a2.63,2.63,0,0,0,.83,3.64l17.64,11.14a2.66,2.66,0,0,0,1.42.41,2.86,2.86,0,0,0,.58-.06,2.67,2.67,0,0,0,1.65-1.17l1.2-1.9,8.27,10.9-2.8,4a8.51,8.51,0,0,0,2,11.78l.15.11a8.48,8.48,0,0,0,4.78,1.57,8.56,8.56,0,0,0,8.56,8.62,8.2,8.2,0,0,0,1.55-.14,8.78,8.78,0,0,0,1.38-.39,8.62,8.62,0,0,0,3.91,4.5,8.51,8.51,0,0,0,4.07,1,8.62,8.62,0,0,0,3.77-.88,7.77,7.77,0,0,0,13,1.09l12.83,2a17.62,17.62,0,0,0,2.6.2,16.77,16.77,0,0,0,11.82-4.89,9.08,9.08,0,0,0,.91.05,9.57,9.57,0,0,0,8-4.37,7.68,7.68,0,0,0,1.45-4.62h.12a10.11,10.11,0,0,0,8.45-4.53,7.61,7.61,0,0,0,1.25-3.86c.22,0,.43,0,.65,0a9.37,9.37,0,0,0,9.17-11.3c-.07-.33-.2-.63-.3-.95l10.13-9.58.27.43a2.72,2.72,0,0,0,1.66,1.17,2.93,2.93,0,0,0,.58.06,2.62,2.62,0,0,0,1.43-.42l17.77-11.38a2.66,2.66,0,0,0,.81-3.64M1498.14,346.4,1485,338.08l22.52-35.66,13.17,8.31Zm19.25,25.11a3.15,3.15,0,0,1-4.27.53l-1.53,2.16,1.38-2.26a3.21,3.21,0,0,1-.76-4.45l5-7.19a3.16,3.16,0,0,1,2.61-1.36,3.36,3.36,0,0,1,1.76.5,3.23,3.23,0,0,1,1.45,2.06,3.15,3.15,0,0,1-.39,2.28Zm9.83,6.57c-.14.2-.23.44-.35.65l-.74,1.08a3.28,3.28,0,0,1-4.63.83,3.31,3.31,0,0,1-.83-4.56l1.08-1.57c.07-.1.16-.18.23-.28h0c1.56-2.28,3.41-5,5-7.3l.11-.19,4.22-6.19a3.34,3.34,0,0,1,4.53-.91,3.31,3.31,0,0,1,.92,4.63l-1.44,2.12a1.27,1.27,0,0,0-.11.13Zm11.31,4.42c-.14.19-.21.4-.33.6l-1.18,1.72a3.3,3.3,0,0,1-5.93-1.1,3.21,3.21,0,0,1,.15-2l8.4-12.32a3.27,3.27,0,0,1,2.14-1.27l.48,0a3.29,3.29,0,0,1,2.71,5.17l-2.39,3.48a1.81,1.81,0,0,0-.18.21Zm12.34.35L1547,388.4h0a2.5,2.5,0,0,1-3,.88,2.51,2.51,0,0,1-1.38-3.23l4.33-6.31a2.54,2.54,0,0,1,1.54-.84l.35,0a2.5,2.5,0,0,1,1.59.57l0,0a2.53,2.53,0,0,1,.43,3.36m51.73-18.24a4.07,4.07,0,0,1-5.5,1.26l-22.5-13.47a2.64,2.64,0,0,0-2.71,4.54l18,10.77h0l2.16,1.3a2.59,2.59,0,0,1,.84,3.65,4.82,4.82,0,0,1-6.29,1.57L1569,364.64a2.65,2.65,0,1,0-2.53,4.65l12.68,6.91,3.14,1.92a2.35,2.35,0,0,1,1.12,1.6,2.43,2.43,0,0,1-.44,1.91l-.1.15a4.32,4.32,0,0,1-5.61,1.53l-13.62-6.92a2.65,2.65,0,0,0-2.39,4.72l11.33,5.75a11.52,11.52,0,0,1-7.87,1.62l-10.23-1.56.72-1.05a7.85,7.85,0,0,0-1.44-10.49l-.07-.05a7.78,7.78,0,0,0-3.25-1.52,8.51,8.51,0,0,0-7.89-11,8.84,8.84,0,0,0-.13-2.11,8.58,8.58,0,0,0-15.45-3.23,8.51,8.51,0,0,0-13-1.45l-8.54-11.26,17-26.95,4.93,2.56a7.61,7.61,0,0,0,2.19.72l6.85,1.08-6.93,9a7.22,7.22,0,0,0,9.07,10.79l19.33-10.1a1.92,1.92,0,0,1,2,.09l41.6,27a4.08,4.08,0,0,1,1.18,5.67m2.43-9.52c-.25-.2-.47-.41-.74-.59l-41.6-27a7.25,7.25,0,0,0-7.27-.34l-19.33,10.11a1.93,1.93,0,0,1-2.81-1.45,1.91,1.91,0,0,1,.39-1.44l9.09-11.84a10.29,10.29,0,0,1,6.26-3.83l10.68-2a45.36,45.36,0,0,1,17.72.2l11.35,2.39A7.29,7.29,0,0,0,1593,319l4.57-1.84,17.81,28.2Zm16.49-9.82L1599,309.6l13.33-8.54,22.51,35.67Z" transform="translate(-1446 -231)"/></g></svg>