<svg id="Слой_1" data-name="Слой 1" xmlns="http://www.w3.org/2000/svg" viewBox="0 0 226 226"><defs><style>.cls-1{fill:#00a560;}.cls-2{fill:#fff;}.cls-3{fill:none;stroke:#fff;stroke-miterlimit:10;stroke-width:2px;}</style></defs><title>за оперативность</title><g id="За_оперативность" data-name="За оперативность"><path class="cls-1" d="M493,667A113,113,0,1,1,606,780,113,113,0,0,1,493,667" transform="translate(-493 -554)"/><path class="cls-2" d="M631.26,607.27l-2.85,7.56a59.26,59.26,0,0,1-27,113.94l-5.7,7.47a67.34,67.34,0,0,0,35.55-129m-92.59,62.42a67.32,67.32,0,0,0,35.61,59.41l2.93-7.61a59.26,59.26,0,0,1,28.13-111l5.33-7.92a67.33,67.33,0,0,0-72,67.16m92-83.49L604,656.86l47-7.71L575.77,747.8l26.18-68-38.76,6.73Z" transform="translate(-493 -554)"/><circle class="cls-3" cx="113" cy="113" r="104.5"/><circle class="cls-3" cx="113" cy="113" r="94.5"/><circle class="cls-3" cx="113" cy="113" r="84.5"/></g></svg>