<svg id="Слой_1" data-name="Слой 1" xmlns="http://www.w3.org/2000/svg" viewBox="0 0 226 226"><defs><style>.cls-1{fill:#475deb;}.cls-2{fill:#fff;}</style></defs><title>за вовлеченность</title><g id="За_вовлеченность" data-name="За вовлеченность"><path class="cls-1" d="M848,344A113,113,0,1,1,961,457,113,113,0,0,1,848,344" transform="translate(-848 -231)"/><path class="cls-2" d="M957.58,365.59a23.29,23.29,0,1,1,23.1-23.3h-6.53A16.58,16.58,0,1,0,957.58,359Z" transform="translate(-848 -231)"/><path class="cls-2" d="M957.58,385.59a43.3,43.3,0,1,1,42.94-43.31H994A36.42,36.42,0,1,0,957.58,379Z" transform="translate(-848 -231)"/><path class="cls-2" d="M957.58,405.59c-34.62,0-62.79-28.4-62.79-63.31S923,279,957.58,279s62.79,28.39,62.79,63.28h-6.53c0-31.26-25.24-56.7-56.26-56.7s-56.26,25.44-56.26,56.7S926.56,399,957.58,399Z" transform="translate(-848 -231)"/><path class="cls-2" d="M957.58,425.59C912,425.59,875,388.21,875,342.27S912,259,957.58,259s82.63,37.35,82.63,83.27h-6.53c0-42.29-34.14-76.69-76.1-76.69s-76.1,34.4-76.1,76.69S915.62,419,957.58,419Z" transform="translate(-848 -231)"/><path class="cls-2" d="M999.69,446.54,958.24,343,1061,384.76l-42.66,18.78ZM970,354.86l29.9,74.69,13.45-31L1044.14,385Z" transform="translate(-848 -231)"/><polygon class="cls-2" points="191.35 198.36 165.56 172.37 170.17 167.71 195.97 193.71 191.35 198.36"/></g></svg>