<svg width="40" height="48" viewBox="0 0 40 48" fill="none" xmlns="http://www.w3.org/2000/svg">
<g clip-path="url(#clip0)">
<path d="M23.4899 26.3706H16.5103C16.3686 26.3706 16.2268 26.2922 16.1205 26.1747C6.44827 15.2033 8.14889 0.666125 8.18432 0.509391C8.21975 0.235105 8.43233 2.86102e-06 8.71577 2.86102e-06H31.2844C31.5324 2.86102e-06 31.7804 0.235105 31.8159 0.509391C31.8513 0.666125 33.5519 15.2425 23.8796 26.2139C23.7733 26.3314 23.6316 26.3706 23.4899 26.3706ZM16.7229 25.1951H23.2773C31.4261 15.791 31.001 3.76164 30.8238 1.17551H9.21178C8.9992 3.76164 8.57405 15.791 16.7229 25.1951Z" fill="#00A560"/>
<path d="M34.6856 48H5.31449C5.03106 48 4.78305 47.7257 4.78305 47.4123C4.78305 43.9249 7.90085 41.1037 11.7272 41.1037H28.2374C32.0638 41.1037 35.1816 43.9249 35.1816 47.4123C35.2171 47.7257 34.9691 48 34.6856 48ZM5.88137 46.8245H34.0833C33.729 44.2776 31.2489 42.2792 28.2374 42.2792H11.7272C8.71573 42.2792 6.23566 44.2776 5.88137 46.8245Z" fill="#00A560"/>
<path d="M28.6271 18.2596C28.3437 18.2596 28.0957 17.9853 28.0957 17.6718C28.0957 17.3584 28.3437 17.0841 28.6271 17.0841C36.3154 17.0841 38.4057 9.63918 38.9372 6.42612C38.9726 6.26938 38.9017 6.15183 38.8663 6.07347C38.8309 6.03428 38.7246 5.91673 38.5829 5.91673H31.3907C31.1072 5.91673 30.8592 5.64245 30.8592 5.32898C30.8592 5.01551 31.1072 4.74122 31.3907 4.74122H38.5474C38.9726 4.74122 39.3623 4.93714 39.6457 5.32898C39.9292 5.68163 40.0355 6.15183 39.9646 6.62204C39.504 9.36489 37.3783 18.2596 28.6271 18.2596Z" fill="#00A560"/>
<path d="M11.3733 18.2596C2.6222 18.2596 0.49643 9.36489 0.0358451 6.62204C-0.035014 6.15183 0.0712747 5.68163 0.354711 5.32898C0.638148 4.97632 1.02787 4.74122 1.45303 4.74122H8.6098C8.89324 4.74122 9.14125 5.01551 9.14125 5.32898C9.14125 5.64245 8.89324 5.91673 8.6098 5.91673H1.45303C1.31131 5.91673 1.20502 5.9951 1.16959 6.07347C1.09873 6.15183 1.02787 6.26938 1.0633 6.42612C1.59475 9.63918 3.64966 17.0841 11.3733 17.0841C11.6567 17.0841 11.9048 17.3584 11.9048 17.6718C11.9048 17.9853 11.6567 18.2596 11.3733 18.2596Z" fill="#00A560"/>
<path d="M11.5147 42.2792C11.2312 42.2792 11.0186 42.0441 10.9832 41.7306C10.8769 40.3984 11.3729 37.7731 13.1444 36.48L13.2861 36.3625C14.3136 35.618 15.9079 34.5208 15.9434 32.7184C15.9434 32.6792 15.9434 32.64 15.9434 32.6008V25.7829C15.9434 25.4694 16.1914 25.1951 16.4748 25.1951C16.7582 25.1951 17.0062 25.4694 17.0062 25.7829V32.5225C17.0062 32.5616 17.0062 32.6008 17.0062 32.64C17.0062 35.1478 15.0222 36.5584 13.853 37.3812L13.7113 37.4988C12.4004 38.4392 11.9398 40.5159 12.0107 41.6523C12.0461 41.9657 11.8335 42.2792 11.5147 42.2792C11.5501 42.2792 11.5501 42.2792 11.5147 42.2792Z" fill="#00A560"/>
<path d="M28.45 42.2792H28.4146C28.1311 42.24 27.9185 41.9657 27.9185 41.6523C28.0248 40.5159 27.5288 38.4392 26.2179 37.4988L26.0762 37.3812C24.907 36.5584 22.923 35.1478 22.923 32.64C22.923 32.6008 22.923 32.5616 22.923 32.5225V25.7829C22.923 25.4694 23.171 25.1951 23.4544 25.1951C23.7379 25.1951 23.9859 25.4694 23.9859 25.7829V32.64C23.9859 32.6792 23.9859 32.7184 23.9859 32.7576C24.0567 34.56 25.6156 35.6572 26.6431 36.4016L26.7848 36.5192C28.3791 37.6555 29.0877 40.0849 28.946 41.7698C28.9814 42.0441 28.7334 42.2792 28.45 42.2792Z" fill="#00A560"/>
</g>
<defs>
<clipPath id="clip0">
<rect width="40" height="48" fill="white"/>
</clipPath>
</defs>
</svg>
