<svg width="224" height="32" viewBox="0 0 224 32" fill="none" xmlns="http://www.w3.org/2000/svg">
<path d="M39.4 28.2H14.1C6.3 28.2 0 21.9 0 14.1C0 6.3 6.3 0 14.1 0H39.4C47.2 0 53.5 6.3 53.5 14.1C53.5 21.9 47.2 28.2 39.4 28.2Z" fill="url(#paint0_linear)"/>
<path d="M63.6212 6.12874H66.9743V15.1796L74.4985 6.12874H78.5332L70.6819 15.016L79.0239 25.2118H74.7711L66.9743 15.3704V25.2118H63.6212V6.12874ZM81.9375 25.2118V6.12874H85.2907V19.705L95.2956 6.12874H98.2399V25.2118H94.8867V11.6628L84.8817 25.2118H81.9375ZM118.059 23.358C117.75 23.6851 117.377 23.985 116.941 24.2576C116.505 24.5121 116.014 24.7393 115.469 24.9392C114.942 25.1209 114.378 25.2572 113.779 25.3481C113.179 25.4571 112.57 25.5117 111.952 25.5117C110.498 25.5117 109.162 25.2845 107.945 24.8301C106.745 24.3576 105.709 23.6942 104.837 22.84C103.983 21.9677 103.31 20.9317 102.82 19.7322C102.347 18.5146 102.111 17.1606 102.111 15.6703C102.111 14.3072 102.32 13.0259 102.738 11.8264C103.174 10.6269 103.801 9.58186 104.619 8.69132C105.455 7.80078 106.473 7.10107 107.672 6.59219C108.89 6.08331 110.289 5.82887 111.87 5.82887C113.124 5.82887 114.242 6.01061 115.224 6.37409C116.223 6.71941 117.041 7.18285 117.677 7.76443L116.178 10.2452C115.596 9.86357 114.969 9.5546 114.297 9.31834C113.642 9.08207 112.834 8.96394 111.87 8.96394C110.98 8.96394 110.153 9.11842 109.39 9.42738C108.644 9.73635 107.99 10.1816 107.427 10.7632C106.882 11.3448 106.445 12.0536 106.118 12.8896C105.809 13.7074 105.655 14.6343 105.655 15.6703C105.655 16.6699 105.809 17.5786 106.118 18.3964C106.445 19.2143 106.9 19.9231 107.481 20.5228C108.063 21.1044 108.754 21.5588 109.553 21.8859C110.371 22.213 111.271 22.3766 112.252 22.3766C113.07 22.3766 113.86 22.2494 114.624 21.9949C115.405 21.7405 116.123 21.3588 116.777 20.85L118.059 23.358ZM127.169 6.12874H138.21V9.26381H130.522V14.0073H137.392V17.1424H130.522V22.0767H138.483V25.2118H127.169V6.12874ZM142.85 6.12874H146.23L152.746 15.0433L158.961 6.12874H162.124V25.2118H158.798V11.4175L152.773 19.8958H152.282L146.203 11.4993V25.2118H142.85V6.12874ZM167.423 25.2118V6.12874H170.776V19.705L180.781 6.12874H183.725V25.2118H180.372V11.6628L170.367 25.2118H167.423ZM194.629 6.07422H197.574L205.643 25.2118H202.072L200.082 20.332H191.93L189.94 25.2118H186.56L194.629 6.07422ZM193.212 17.1969H198.8L196.02 10.4088L193.212 17.1969ZM222.366 23.358C222.057 23.6851 221.684 23.985 221.248 24.2576C220.812 24.5121 220.321 24.7393 219.776 24.9392C219.249 25.1209 218.686 25.2572 218.086 25.3481C217.486 25.4571 216.877 25.5117 216.259 25.5117C214.805 25.5117 213.47 25.2845 212.252 24.8301C211.052 24.3576 210.016 23.6942 209.144 22.84C208.29 21.9677 207.617 20.9317 207.127 19.7322C206.654 18.5146 206.418 17.1606 206.418 15.6703C206.418 14.3072 206.627 13.0259 207.045 11.8264C207.481 10.6269 208.108 9.58186 208.926 8.69132C209.762 7.80078 210.78 7.10107 211.979 6.59219C213.197 6.08331 214.596 5.82887 216.178 5.82887C217.432 5.82887 218.549 6.01061 219.531 6.37409C220.53 6.71941 221.348 7.18285 221.984 7.76443L220.485 10.2452C219.903 9.86357 219.276 9.5546 218.604 9.31834C217.95 9.08207 217.141 8.96394 216.178 8.96394C215.287 8.96394 214.46 9.11842 213.697 9.42738C212.952 9.73635 212.297 10.1816 211.734 10.7632C211.189 11.3448 210.753 12.0536 210.425 12.8896C210.116 13.7074 209.962 14.6343 209.962 15.6703C209.962 16.6699 210.116 17.5786 210.425 18.3964C210.753 19.2143 211.207 19.9231 211.788 20.5228C212.37 21.1044 213.061 21.5588 213.86 21.8859C214.678 22.213 215.578 22.3766 216.559 22.3766C217.377 22.3766 218.168 22.2494 218.931 21.9949C219.713 21.7405 220.43 21.3588 221.085 20.85L222.366 23.358Z" fill="#2B2B2B"/>
<path d="M39.4 3.39999C33.5 3.39999 28.7 8.19999 28.7 14.1C28.7 20 33.5 24.8 39.4 24.8C45.3 24.8 50.1 20 50.1 14.1C50.2 8.19999 45.4 3.39999 39.4 3.39999ZM39.1 10.1C39.1 9.79999 39.1 9.59999 39.3 9.29999C39.5 8.79999 39.8 8.59999 40 8.39999C40.7 7.89999 41.4 7.29999 42.1 6.79999C42.1 7.59999 42.2 8.39999 42.1 9.09999C42.1 9.29999 42 9.59999 41.8 9.99999C41.6 10.3 41.4 10.5 41.3 10.6C40.6 11.2 39.9 11.6 39.1 12.2C39.1 11.3 39.1 10.6 39.1 10.1ZM37.9 17.6C36.7 16.7 35.4 15.9 34.2 14.9C33.9 14.7 33.6 14.3 33.3 13.8C33 13.2 32.8 12.6 32.8 12.3C32.7 11 32.8 9.59999 32.8 8.29999C34 9.19999 35.2 10.2 36.4 11.1C36.8 11.4 37.3 11.9 37.7 12.6C37.9 13.1 38 13.6 38 14C37.9 14.9 38 16.1 37.9 17.6ZM45.5 15.1C45.5 15.6 45.3 16.3 44.8 17C44.4 17.7 44 18.1 43.7 18.4C42.2 19.6 40.6 20.7 39 21.8C38.9 19.9 38.9 18.4 39 17.3C39 16.7 39.1 16.2 39.4 15.5C39.8 14.5 40.5 13.9 41 13.6C42.5 12.4 44 11.2 45.6 10.1C45.5 11.7 45.6 13.4 45.5 15.1Z" fill="white"/>
<defs>
<linearGradient id="paint0_linear" x1="-3.9876" y1="-9.4415" x2="97.9096" y2="68.5371" gradientUnits="userSpaceOnUse">
<stop offset="0.0720965" stop-color="#20C4F4"/>
<stop offset="0.0762178" stop-color="#20C4F3"/>
<stop offset="0.2853" stop-color="#12B6B4"/>
<stop offset="0.4622" stop-color="#08AC87"/>
<stop offset="0.5981" stop-color="#02A66A"/>
<stop offset="0.6767" stop-color="#00A460"/>
</linearGradient>
</defs>
</svg>
