<?xml version="1.0" encoding="utf-8"?>
<!-- Generator: Adobe Illustrator 23.0.2, SVG Export Plug-In . SVG Version: 6.00 Build 0)  -->
<svg version="1.1" id="Слой_1" xmlns="http://www.w3.org/2000/svg" xmlns:xlink="http://www.w3.org/1999/xlink" x="0px" y="0px"
	 viewBox="0 0 224 32" style="enable-background:new 0 0 224 32;" xml:space="preserve">
<style type="text/css">
	.st0{fill:url(#SVGID_1_);}
	.st1{fill:#FFFFFF;}
</style>
<linearGradient id="SVGID_1_" gradientUnits="userSpaceOnUse" x1="-3.9968" y1="43.4295" x2="97.9004" y2="-34.5491" gradientTransform="matrix(1 0 0 -1 0 34)">
	<stop  offset="7.209650e-02" style="stop-color:#20C4F4"/>
	<stop  offset="7.621780e-02" style="stop-color:#20C4F3"/>
	<stop  offset="0.2853" style="stop-color:#12B6B4"/>
	<stop  offset="0.4622" style="stop-color:#08AC87"/>
	<stop  offset="0.5981" style="stop-color:#02A66A"/>
	<stop  offset="0.6767" style="stop-color:#00A460"/>
</linearGradient>
<path class="st0" d="M39.4,28.2H14.1C6.3,28.2,0,21.9,0,14.1S6.3,0,14.1,0h25.3c7.8,0,14.1,6.3,14.1,14.1S47.2,28.2,39.4,28.2z"/>
<path class="st1" d="M39.4,3.4c-5.9,0-10.7,4.8-10.7,10.7c0,5.9,4.8,10.7,10.7,10.7S50.1,20,50.1,14.1C50.2,8.2,45.4,3.4,39.4,3.4z
	 M39.1,10.1c0-0.3,0-0.5,0.2-0.8c0.2-0.5,0.5-0.7,0.7-0.9c0.7-0.5,1.4-1.1,2.1-1.6c0,0.8,0.1,1.6,0,2.3c0,0.2-0.1,0.5-0.3,0.9
	c-0.2,0.3-0.4,0.5-0.5,0.6c-0.7,0.6-1.4,1-2.2,1.6C39.1,11.3,39.1,10.6,39.1,10.1z M37.9,17.6c-1.2-0.9-2.5-1.7-3.7-2.7
	c-0.3-0.2-0.6-0.6-0.9-1.1c-0.3-0.6-0.5-1.2-0.5-1.5c-0.1-1.3,0-2.7,0-4c1.2,0.9,2.4,1.9,3.6,2.8c0.4,0.3,0.9,0.8,1.3,1.5
	c0.2,0.5,0.3,1,0.3,1.4C37.9,14.9,38,16.1,37.9,17.6z M45.5,15.1c0,0.5-0.2,1.2-0.7,1.9c-0.4,0.7-0.8,1.1-1.1,1.4
	c-1.5,1.2-3.1,2.3-4.7,3.4c-0.1-1.9-0.1-3.4,0-4.5c0-0.6,0.1-1.1,0.4-1.8c0.4-1,1.1-1.6,1.6-1.9c1.5-1.2,3-2.4,4.6-3.5
	C45.5,11.7,45.6,13.4,45.5,15.1z"/>
</svg>
