<svg width="18" height="17" viewBox="0 0 18 17" fill="none" xmlns="http://www.w3.org/2000/svg">
<path d="M15.1004 8.96292C15.1334 8.70771 15.1554 8.44229 15.1554 8.16667C15.1554 7.89104 15.1334 7.62563 15.0894 7.37042L16.9484 6.02292C17.1134 5.90042 17.1574 5.67583 17.0584 5.50229L15.2984 2.67458C15.1884 2.49083 14.9574 2.42958 14.7594 2.49083L12.5704 3.3075C12.1084 2.98083 11.6244 2.71542 11.0854 2.51125L10.7554 0.347083C10.7224 0.142917 10.5354 0 10.3154 0H6.79535C6.57535 0 6.39936 0.142917 6.36636 0.347083L6.03636 2.51125C5.49735 2.71542 5.00236 2.99104 4.55136 3.3075L2.36235 2.49083C2.16435 2.41938 1.93336 2.49083 1.82336 2.67458L0.0633549 5.50229C-0.0466451 5.68604 -0.00264496 5.90042 0.173355 6.02292L2.03236 7.37042C1.98836 7.62563 1.95535 7.90125 1.95535 8.16667C1.95535 8.43208 1.97735 8.70771 2.02135 8.96292L0.162355 10.3104C-0.00264522 10.4329 -0.0466451 10.6575 0.0523549 10.831L1.81235 13.6588C1.92235 13.8425 2.15335 13.9038 2.35136 13.8425L4.54036 13.0258C5.00236 13.3525 5.48635 13.6179 6.02535 13.8221L6.35536 15.9863C6.39936 16.1904 6.57535 16.3333 6.79535 16.3333H10.3154C10.5354 16.3333 10.7224 16.1904 10.7444 15.9863L11.0744 13.8221C11.6134 13.6179 12.1084 13.3423 12.5594 13.0258L14.7484 13.8425C14.9464 13.914 15.1774 13.8425 15.2874 13.6588L17.0474 10.831C17.1574 10.6473 17.1134 10.4329 16.9374 10.3104L15.1004 8.96292ZM8.55536 11.2292C6.74036 11.2292 5.25536 9.85104 5.25536 8.16667C5.25536 6.48229 6.74036 5.10417 8.55536 5.10417C10.3704 5.10417 11.8554 6.48229 11.8554 8.16667C11.8554 9.85104 10.3704 11.2292 8.55536 11.2292Z" fill="#2B2B2B"/>
</svg>
