<svg width="51" height="50" viewBox="0 0 51 50" fill="none" xmlns="http://www.w3.org/2000/svg">
<g clip-path="url(#clip0)">
<path d="M45.9701 50H35.9105C34.4678 50 33.1421 49.1942 32.3623 47.9049C31.5825 46.5753 31.5045 44.9637 32.1673 43.5536L34.5068 38.5979C35.1696 36.8251 34.8187 34.8509 33.61 33.4408L31.7385 31.3054L29.7889 36.3417C31.2706 37.1475 32.1673 38.8397 31.9724 40.6124C31.9334 40.9347 31.6605 41.1765 31.3096 41.1362C30.9976 41.0959 30.7637 40.8139 30.8027 40.4513C30.9586 39.0411 30.1398 37.6712 28.8531 37.228C28.6972 37.1878 28.5802 37.0669 28.5022 36.9057C28.4242 36.7446 28.4242 36.5834 28.5022 36.4222L31.0366 29.9355C31.1146 29.7341 31.2706 29.6132 31.4655 29.5729C31.6605 29.5326 31.8554 29.6132 32.0114 29.7744L34.5068 32.635C36.0274 34.4077 36.4563 36.8654 35.6375 39.0411V39.0814L33.2981 44.0774C32.8302 45.0846 32.8692 46.2933 33.454 47.2603C33.9999 48.187 34.9357 48.751 35.9885 48.751H36.0274H46.0091C47.9976 48.751 49.6742 47.22 49.8302 45.2458C49.9862 43.3924 48.8164 41.7002 47.0618 41.2168C46.7889 41.1362 46.594 40.8542 46.6329 40.5721C46.6329 40.4915 46.6329 40.411 46.6329 40.2901C46.6329 38.9202 45.4242 37.8727 44.0595 38.2353C43.9036 38.2756 43.7086 38.2353 43.5527 38.1144C43.3967 37.9936 43.3187 37.8324 43.3187 37.6309C43.3187 37.6309 43.3187 37.5907 43.3187 37.5504C43.3187 36.4222 42.4219 35.4956 41.2912 35.4956C40.7063 35.4956 40.1605 35.7776 39.7706 36.2208C39.5756 36.4625 39.1857 36.5028 38.9518 36.3014C38.7178 36.0999 38.6788 35.697 38.8738 35.4553C39.4976 34.7301 40.3554 34.3272 41.2912 34.3272C42.8118 34.3272 44.0985 35.4553 44.4105 36.946C46.204 36.8654 47.7637 38.3562 47.8027 40.2095C49.8302 40.975 51.1559 43.0701 50.9609 45.3666C50.766 47.9855 48.5825 50 45.9701 50Z" fill="#00A560"/>
<path d="M25.4999 9.06528C22.1857 9.06528 20.2751 8.21919 20.1971 8.1789C19.8852 8.05803 19.7682 7.69542 19.8852 7.3731C20.0022 7.05078 20.3531 6.92991 20.665 7.05078C20.665 7.05078 22.4586 7.81629 25.4999 7.81629C28.5412 7.81629 30.2957 7.05078 30.3347 7.05078C30.6467 6.92991 30.9586 7.05078 31.1146 7.3731C31.2315 7.69542 31.1146 8.01774 30.8026 8.1789C30.6857 8.25948 28.8141 9.06528 25.4999 9.06528Z" fill="#00A560"/>
<path d="M25.4999 21.9581C23.3944 21.9581 21.6788 20.1853 21.6788 18.0097C21.6788 15.834 23.3944 14.0612 25.4999 14.0612C27.6054 14.0612 29.321 15.834 29.321 18.0097C29.321 20.1853 27.6054 21.9581 25.4999 21.9581ZM25.4999 15.2699C24.0182 15.2699 22.8485 16.5189 22.8485 18.0097C22.8485 19.5407 24.0572 20.7494 25.4999 20.7494C26.9815 20.7494 28.1512 19.5004 28.1512 18.0097C28.1512 16.4787 26.9425 15.2699 25.4999 15.2699Z" fill="#00A560"/>
<path d="M25.4998 50C25.2659 50 25.032 49.8388 24.954 49.5971C23.4333 45.2861 22.6925 41.7002 22.7315 38.8397C22.7315 38.5173 23.0044 38.2353 23.3164 38.2353C23.6283 38.2353 23.9012 38.5173 23.9012 38.8397C23.8622 41.1765 24.4081 44.0774 25.4998 47.5423C26.5916 44.1177 27.1375 41.1765 27.0985 38.8397C27.0985 38.5173 27.3324 38.2353 27.6833 38.2353C27.9953 38.2353 28.2682 38.477 28.2682 38.8397C28.3072 41.66 27.5664 45.2861 26.0457 49.5971C25.9677 49.8388 25.7338 50 25.4998 50Z" fill="#00A560"/>
<path d="M15.0104 50H4.98977C2.37739 50 0.193902 47.9855 -0.00105248 45.3666C-0.196007 43.1104 1.12968 41.0153 3.1572 40.2095C3.1962 38.3562 4.71684 36.8654 6.54941 36.946C6.86133 35.4553 8.10904 34.3272 9.66867 34.3272C10.6045 34.3272 11.4622 34.7301 12.0861 35.4553C12.2811 35.697 12.2811 36.0999 12.0081 36.3014C11.7352 36.5028 11.3843 36.5028 11.1893 36.2208C10.7994 35.7776 10.2535 35.4956 9.66867 35.4956C8.57693 35.4956 7.64115 36.4222 7.64115 37.5907C7.64115 37.5907 7.64115 37.5907 7.64115 37.6309C7.64115 37.8324 7.56317 37.9936 7.4072 38.1144C7.25124 38.2353 7.09528 38.2756 6.90032 38.2353C5.53565 37.8727 4.32693 38.9202 4.32693 40.2901C4.32693 40.3707 4.32693 40.4915 4.32693 40.5721C4.36592 40.8542 4.17097 41.1362 3.89803 41.2168C2.14344 41.7002 1.01271 43.3924 1.12968 45.2458C1.28564 47.22 2.96225 48.751 4.95078 48.751H14.9714C16.0242 48.751 16.96 48.187 17.5058 47.2603C18.0907 46.2933 18.1297 45.0846 17.6618 44.0774L15.3223 39.0814V39.0411C14.5035 36.8654 14.9324 34.4077 16.4531 32.635L18.9485 29.7744C19.0655 29.6132 19.2994 29.5326 19.4944 29.5729C19.6893 29.6132 19.8453 29.7341 19.9233 29.9355L22.4577 36.4222C22.5356 36.5834 22.4967 36.7446 22.4577 36.9057C22.4187 37.0669 22.2627 37.1878 22.1067 37.228C20.82 37.6712 20.0012 39.0411 20.1572 40.4513C20.1962 40.7736 19.9623 41.0959 19.6503 41.1362C19.3384 41.1765 19.0265 40.9347 18.9875 40.6124C18.7925 38.8397 19.6893 37.1475 21.171 36.3417L19.2214 31.3054L17.3499 33.4408C16.1411 34.8509 15.7902 36.8251 16.4531 38.5979L18.7925 43.5536C19.4554 44.9637 19.3774 46.5753 18.5976 47.9049C17.8178 49.1942 16.4921 49.9597 15.0494 50H15.0104Z" fill="#00A560"/>
<path d="M31.5435 30.8219C31.4655 30.8219 31.3875 30.8219 31.3095 30.7816C30.9976 30.6608 30.8806 30.2982 30.9976 29.9758C37.0022 14.867 27.5664 3.6664 25.4999 1.45045C23.3944 3.6664 13.9976 14.867 19.9632 29.9758C20.0802 30.2982 19.9242 30.6205 19.6513 30.7816C19.3394 30.9025 19.0274 30.7413 18.8715 30.4593C11.8921 12.8123 24.954 0.282035 25.11 0.161165C25.3439 -0.0402854 25.6559 -0.0402854 25.8898 0.161165C26.0068 0.282035 39.1077 12.8123 32.0894 30.419C32.0114 30.6608 31.7774 30.8219 31.5435 30.8219Z" fill="#00A560"/>
</g>
<defs>
<clipPath id="clip0">
<rect width="51" height="50" fill="white"/>
</clipPath>
</defs>
</svg>
